<svg width="1104" height="1009" viewBox="0 0 1104 1009" fill="none" xmlns="http://www.w3.org/2000/svg">
<g filter="url(#filter0_f)">
<path d="M376.181 569.277C176.735 689.264 -8.20393 790.613 -145.977 857.476C-214.866 890.909 -271.955 915.716 -313.166 929.92C-333.774 937.023 -350.397 941.47 -362.535 943.023C-368.604 943.799 -373.534 943.849 -377.272 943.155C-381.011 942.461 -383.512 941.031 -384.8 938.89C-386.089 936.748 -386.18 933.869 -385.041 930.24C-383.903 926.613 -381.55 922.281 -378.02 917.282C-370.962 907.287 -359.245 894.684 -343.315 879.806C-311.458 850.052 -262.795 811.239 -200.984 766.043C-77.364 675.653 98.8199 559.751 298.266 439.764C497.712 319.778 682.651 218.429 820.424 151.565C889.313 118.133 946.401 93.3258 987.613 79.1212C1008.22 72.0181 1024.84 67.5714 1036.98 66.019C1043.05 65.2426 1047.98 65.1927 1051.72 65.8867C1055.46 66.5811 1057.96 68.0104 1059.25 70.1521C1060.54 72.2938 1060.63 75.1727 1059.49 78.8018C1058.35 82.4289 1056 86.7606 1052.47 91.7592C1045.41 101.755 1033.69 114.357 1017.76 129.236C985.904 158.989 937.242 197.802 875.43 242.998C751.811 333.389 575.627 449.291 376.181 569.277Z" stroke="white" stroke-opacity="0.49" stroke-width="0.590404"/>
</g>
<defs>
<filter id="filter0_f" x="-428.886" y="0.267246" width="1532.22" height="1008.51" filterUnits="userSpaceOnUse" color-interpolation-filters="sRGB">
<feFlood flood-opacity="0" result="BackgroundImageFix"/>
<feBlend mode="normal" in="SourceGraphic" in2="BackgroundImageFix" result="shape"/>
<feGaussianBlur stdDeviation="2.36162" result="effect1_foregroundBlur"/>
</filter>
</defs>
</svg>
