<?xml version="1.0" standalone="no"?>
<!DOCTYPE svg PUBLIC "-//W3C//DTD SVG 20010904//EN"
 "http://www.w3.org/TR/2001/REC-SVG-20010904/DTD/svg10.dtd">
<svg version="1.0" xmlns="http://www.w3.org/2000/svg"
 width="152.000000pt" height="152.000000pt" viewBox="0 0 152.000000 152.000000"
 preserveAspectRatio="xMidYMid meet">
<metadata>
Created by potrace 1.11, written by Peter Selinger 2001-2013
</metadata>
<g transform="translate(0.000000,152.000000) scale(0.100000,-0.100000)"
fill="#000000" stroke="none">
<path d="M1379 1390 c-24 -21 -67 -54 -96 -72 -29 -18 -52 -40 -53 -48 0 -9
-7 -25 -15 -36 -8 -12 -11 -25 -7 -29 4 -3 2 -5 -4 -3 -6 2 -28 -12 -50 -30
-21 -18 -78 -65 -127 -104 -75 -61 -85 -73 -75 -87 12 -14 11 -14 -4 -3 -18
14 -43 7 -33 -9 4 -5 -1 -10 -9 -10 -32 -3 -36 -4 -33 -12 1 -4 -20 -22 -48
-40 -27 -17 -52 -34 -55 -37 -36 -38 -48 -41 -83 -26 -19 8 -38 24 -42 35 -8
25 10 84 31 101 22 19 17 40 -11 40 -14 0 -25 -4 -25 -8 0 -5 -14 -19 -31 -31
-18 -13 -29 -19 -25 -12 4 6 2 11 -3 11 -13 0 -66 -71 -89 -117 -21 -44 -59
-60 -177 -72 -168 -19 -267 -82 -300 -193 -20 -69 -19 -113 5 -190 26 -84 80
-160 160 -225 95 -77 151 -97 280 -97 83 -1 112 3 140 18 88 46 115 101 123
253 3 50 10 100 16 110 5 11 35 27 65 36 66 21 98 51 94 87 -3 22 -9 26 -52
30 -58 6 -93 41 -82 83 3 14 64 77 148 153 180 162 204 186 200 197 -1 4 2 6
7 3 5 -4 33 17 63 45 59 57 96 79 131 79 13 0 32 9 42 21 11 11 52 41 93 67
69 44 73 48 68 76 -3 15 -6 32 -6 36 0 10 -38 35 -66 44 -15 5 -32 -4 -65 -34z
m27 -27 c-10 -10 -19 5 -10 18 6 11 8 11 12 0 2 -7 1 -15 -2 -18z m-56 -43 c0
-5 -4 -10 -10 -10 -5 0 -10 5 -10 10 0 6 5 10 10 10 6 0 10 -4 10 -10z m26
-37 c-10 -10 -19 5 -10 18 6 11 8 11 12 0 2 -7 1 -15 -2 -18z m94 17 c0 -5 -7
-10 -15 -10 -8 0 -15 5 -15 10 0 6 7 10 15 10 8 0 15 -4 15 -10z m-180 -20 c0
-5 -7 -10 -15 -10 -8 0 -15 5 -15 10 0 6 7 10 15 10 8 0 15 -4 15 -10z m110
-25 c0 -8 -4 -15 -10 -15 -5 0 -10 7 -10 15 0 8 5 15 10 15 6 0 10 -7 10 -15z
m-60 -45 c0 -5 -4 -10 -10 -10 -5 0 -10 5 -10 10 0 6 5 10 10 10 6 0 10 -4 10
-10z m-133 -36 c0 -7 -3 -13 -6 -12 -3 0 -13 0 -21 -1 -13 -1 -13 -2 0 -11 12
-8 12 -10 -2 -15 -9 -4 -25 -5 -35 -3 -14 3 -12 7 14 23 18 10 30 22 28 25 -2
4 2 7 9 7 7 0 13 -6 13 -13z m-84 -73 c-3 -11 -11 -22 -18 -25 -9 -3 -12 0 -9
10 2 7 6 21 9 30 7 22 24 8 18 -15z m-59 -50 c3 -5 -3 -11 -15 -14 -16 -4 -18
-3 -8 9 13 16 16 17 23 5z m-49 -53 c-19 -11 -30 -5 -21 11 4 6 14 7 22 4 15
-5 14 -7 -1 -15z m-50 -67 c3 -5 1 -12 -5 -16 -5 -3 -10 1 -10 9 0 18 6 21 15
7z m-94 -54 c-13 -13 -26 -3 -16 12 3 6 11 8 17 5 6 -4 6 -10 -1 -17z m-31
-27 c0 -5 -7 -10 -15 -10 -8 0 -15 5 -15 10 0 6 7 10 15 10 8 0 15 -4 15 -10z
m-40 -25 c0 -8 -4 -15 -10 -15 -5 0 -10 7 -10 15 0 8 5 15 10 15 6 0 10 -7 10
-15z m-103 -23 c-10 -10 -14 -22 -10 -25 3 -4 2 -7 -4 -7 -22 0 -23 15 -1 32
30 23 35 23 15 0z m27 -11 c3 -5 -2 -15 -12 -22 -15 -12 -16 -12 -5 2 7 9 10
19 6 22 -3 4 -4 7 0 7 3 0 8 -4 11 -9z m41 -1 c-3 -5 -11 -10 -16 -10 -6 0 -7
5 -4 10 3 6 11 10 16 10 6 0 7 -4 4 -10z m-169 -28 c-14 -14 -10 -20 41 -67
37 -34 54 -55 49 -64 -5 -7 -15 -10 -25 -6 -13 5 -13 4 -4 -6 10 -10 19 -7 43
16 l30 29 -47 42 c-27 24 -53 41 -60 39 -7 -2 -10 2 -6 11 4 11 9 12 19 3 8
-6 14 -9 14 -6 0 3 23 -19 52 -49 l52 -55 -36 -36 -36 -36 -51 48 c-28 26 -48
52 -44 58 3 5 2 7 -4 4 -12 -8 -53 20 -53 35 0 16 63 67 73 61 5 -3 2 -12 -7
-21z m144 -44 c0 -18 -2 -20 -9 -8 -6 8 -7 18 -5 22 9 14 14 9 14 -14z m-430
-37 c22 -43 -12 -68 -59 -45 -35 17 -35 18 -21 45 14 26 66 26 80 0z m-241
-43 c-16 -29 -29 -63 -29 -75 0 -12 -4 -24 -9 -27 -19 -12 12 84 41 127 30 43
29 32 -3 -25z m466 -43 l80 -75 -38 -35 c-21 -20 -42 -35 -47 -33 -5 2 -43 37
-86 78 l-76 75 38 32 c22 18 41 33 44 33 3 0 41 -34 85 -75z m-119 -81 c70
-62 85 -86 65 -98 -14 -9 -166 138 -157 152 4 7 10 12 13 12 3 0 39 -30 79
-66z m-61 -75 c77 -80 86 -93 73 -106 -13 -13 -26 -3 -106 79 -68 70 -88 96
-80 105 6 7 14 13 18 13 4 0 47 -41 95 -91z m252 -35 c7 -19 -20 -49 -36 -40
-12 8 -15 39 -4 49 12 12 33 7 40 -9z m-97 -99 c0 -8 -4 -15 -10 -15 -5 0 -10
7 -10 15 0 8 5 15 10 15 6 0 10 -7 10 -15z m90 -50 c0 -18 -5 -25 -20 -25 -22
0 -26 20 -8 38 19 19 28 14 28 -13z m-162 -18 c4 -21 -25 -34 -40 -19 -8 8 -8
16 2 27 16 19 34 15 38 -8z m152 -104 c-19 -9 -57 -17 -85 -19 l-50 -4 64 15
c35 8 66 17 69 20 3 3 12 5 21 4 9 0 0 -8 -19 -16z"/>
<path d="M417 617 c-24 -17 -16 -32 50 -91 l54 -50 26 20 c15 11 28 26 29 32
1 7 0 8 -3 2 -9 -19 -28 -10 -83 45 -49 48 -58 54 -73 42z"/>
<path d="M599 993 c-13 -17 -13 -17 6 -3 11 8 22 16 24 17 2 2 0 3 -6 3 -6 0
-17 -8 -24 -17z"/>
</g>
</svg>
