<svg width="19" height="18" viewBox="0 0 19 18" fill="none" xmlns="http://www.w3.org/2000/svg">
<path fill-rule="evenodd" clip-rule="evenodd" d="M9.70457 3.48289C8.23659 3.48289 6.82873 4.06604 5.79071 5.10406C4.75269 6.14208 4.16953 7.54994 4.16953 9.01793C4.16953 10.4859 4.75269 11.8938 5.79071 12.9318C6.82873 13.9698 8.23659 14.553 9.70457 14.553C11.1726 14.553 12.5804 13.9698 13.6184 12.9318C14.6565 11.8938 15.2396 10.4859 15.2396 9.01793C15.2396 7.54994 14.6565 6.14208 13.6184 5.10406C12.5804 4.06604 11.1726 3.48289 9.70457 3.48289ZM0.848511 9.01793C0.848511 6.66915 1.78156 4.41658 3.44239 2.75574C5.10322 1.09491 7.3558 0.161865 9.70457 0.161865C12.0533 0.161865 14.3059 1.09491 15.9668 2.75574C17.6276 4.41658 18.5606 6.66915 18.5606 9.01793C18.5606 11.3667 17.6276 13.6193 15.9668 15.2801C14.3059 16.9409 12.0533 17.874 9.70457 17.874C7.3558 17.874 5.10322 16.9409 3.44239 15.2801C1.78156 13.6193 0.848511 11.3667 0.848511 9.01793Z" fill="white"/>
</svg>
